REM MD5 105d66533559be73cea7daeec44ce3d4
FILE "Psybadek (Europe) (En,Fr,De,Es,It) (Demo).bin" BINARY
  TRACK 01 MODE2/2352
    INDEX 01 00:00:00
  TRACK 02 AUDIO
    INDEX 00 06:24:55
    INDEX 01 06:26:55
  TRACK 03 AUDIO
    INDEX 00 09:55:01
    INDEX 01 09:57:01
REM LEADOUT 15:19:65
